<svg class="Navbar-icon" viewBox="0 0 20.9 14.3"><path class="Navbar-iconPathDefault" d="M19 14.3H2.2c-1.5 0-2.2-.7-2.2-2.1V1.8C0 .9.9 0 1.8 0h3.1c.5 0 1.8 0 2.2 1.1v.1s0 .1.1.2l.2.5V2h11.7c1.4 0 1.7.8 1.7 1.5V6.4l-.1 6.6c.1 1.3-1.2 1.3-1.7 1.3zM5.1 1H1.8c-.3 0-.8.5-.8.8v10.4c0 .8.3 1 1.2 1H19c.8 0 .8-.1.8-.4l.1-6.6V3.5c0-.3 0-.5-.6-.5H7.4c-.6 0-.8-.4-.9-.7l-.2-.5c-.1-.2-.1-.3-.1-.4C6 1.1 5.6 1 5.1 1z"></path><path class="Navbar-iconPathSelected" d="M15.1 2H7.5v-.1l-.2-.5c0-.1-.1-.1-.1-.2v-.1C6.7 0 5.5 0 4.9 0H1.8C.9 0 0 .9 0 1.8v10s0 .6.1 1.1l4.3-4.8c.6-.7 1.8-1.3 2.7-1.3h9.7V3.7c0-1-.7-1.7-1.7-1.7z"></path><path class="Navbar-iconPathSelected" d="M20.3 8.2H7.1c-.7 0-1.5.4-1.9.8l-3.5 4.4c-.1.1-.2.3-.2.5 0 .3.4.4.6.4h13.6c.6 0 .7-.1 1.2-.6L20.5 9c.1-.1.2-.3.2-.5.1-.3-.1-.3-.4-.3z"></path></svg>